{"title":"Chal Guru Ho Ja Shuru (2015) Web Rip - XviD - [1CD] - Eng Subs -","uid":11984923,"size":735154543,"categoryP":"video","categoryS":"movies","magnet":"?xt=urn:btih:6dc412c03b72b45f9da4522e419f31d60b7bc7bb&amp;dn=Chal+Guru+Ho+Ja+Shuru+%282015%29+Web+Rip+-+XviD+-+%5B1CD%5D+-+Eng+Subs+-&amp;tr=udp%3A%2F%2Ftracker.openbittorrent.com%3A80&amp;tr=udp%3A%2F%2Fopen.demonii.com%3A1337&amp;tr=udp%3A%2F%2Ftracker.coppersurfer.tk%3A6969&amp;tr=udp%3A%2F%2Fexodus.desync.com%3A6969","seeders":0,"leechers":2,"uploader":"SS132203","files":4,"time":1433328692,"description":"Chal Guru Ho Ja Shuru (2015) Web Rip - XviD - [1CD] - Eng Subs - Team IcTv\n &lt;a href=&quot;\nhttp://imgsparrow.co/image/47&quot; rel=&quot;nofollow&quot; target=&quot;_NEW&quot;&gt;\nhttp://imgsparrow.co/image/47&lt;/a&gt;\n &lt;a href=&quot;\nhttp://imgsparrow.co/image/gf&quot; rel=&quot;nofollow&quot; target=&quot;_NEW&quot;&gt;\nhttp://imgsparrow.co/image/gf&lt;/a&gt;\n\nInfo : - \n\nAll Credit Goes To Intellect Clever &amp; IcTv\nSample Within Torrent\n\nMovie Info\nBanner :\nYear : 2015\nCast : Hemant Pandey, Chandrachur Singh, Manoj Pahwa\nVideo: XviD\nAudio : MP 3\nGenre : Comedy\nSubtitles :English\nResolution : 640 x 272\nRuntime : 1hr 55min XX\nSource : DDR (Thanks)\n\nFormat : AVI\nFormat/Info : Audio Video Interleave\nFile size : 692 MiB\nDuration : 1h 56mn\nOverall bit rate : 834 Kbps\n\nVideo\nID : 0\nFormat : MPEG-4 Visual\nFormat profile : Advanced Simple@L5\nFormat settings, BVOP : 2\nFormat settings, QPel : No\nFormat settings, GMC : No warppoints\nFormat settings, Matrix : Default (H.263)\nCodec ID : XVID\nCodec ID/Hint : XviD\nDuration : 1h 56mn\nBit rate : 700 Kbps\nWidth : 640 pixels\nHeight : 272 pixels\nDisplay aspect ratio : 2.35:1\nFrame rate : 23.976 fps\nColor space : YUV\nChroma subsampling : 4:2:0\nBit depth : 8 bits\nScan type : Progressive\nCompression mode : Lossy\nBits/(Pixel*Frame) : 0.168\nStream size : 581 MiB (84%)\n\nAudio\nID : 1\nFormat : MPEG Audio\nFormat version : Version 1\nFormat profile : Layer 3\nMode : Joint stereo\nMode extension : MS Stereo\nCodec ID : 55\nCodec ID/Hint : MP3\nDuration : 1h 56mn\nBit rate mode : Constant\nBit rate : 128 Kbps\nChannel(s) : 2 channels\nSampling rate : 48.0 KHz\nCompression mode : Lossy\nStream size : 106 MiB (15%)\n\nScreens : - \n &lt;a href=&quot;\nhttp://imgsparrow.co/image/gI&quot; rel=&quot;nofollow&quot; target=&quot;_NEW&quot;&gt;\nhttp://imgsparrow.co/image/gI&lt;/a&gt; &lt;a href=&quot;\nhttp://imgsparrow.co/image/gP&quot; rel=&quot;nofollow&quot; target=&quot;_NEW&quot;&gt;\nhttp://imgsparrow.co/image/gP&lt;/a&gt; &lt;a href=&quot;\nhttp://imgsparrow.co/image/gW&quot; rel=&quot;nofollow&quot; target=&quot;_NEW&quot;&gt;\nhttp://imgsparrow.co/image/gW&lt;/a&gt; &lt;a href=&quot;\nhttp://imgsparrow.co/image/gX&quot; rel=&quot;nofollow&quot; target=&quot;_NEW&quot;&gt;\nhttp://imgsparrow.co/image/gX&lt;/a&gt; &lt;a href=&quot;\nhttp://imgsparrow.co/image/gY&quot; rel=&quot;nofollow&quot; target=&quot;_NEW&quot;&gt;\nhttp://imgsparrow.co/image/gY&lt;/a&gt; &lt;a href=&quot;\nhttp://imgsparrow.co/image/gc&quot; rel=&quot;nofollow&quot; target=&quot;_NEW&quot;&gt;\nhttp://imgsparrow.co/image/gc&lt;/a&gt; &lt;a href=&quot;\nhttp://imgsparrow.co/image/gd&quot; rel=&quot;nofollow&quot; target=&quot;_NEW&quot;&gt;\nhttp://imgsparrow.co/image/gd&lt;/a&gt; &lt;a href=&quot;\nhttp://imgsparrow.co/image/go&quot; rel=&quot;nofollow&quot; target=&quot;_NEW&quot;&gt;\nhttp://imgsparrow.co/image/go&lt;/a&gt; &lt;a href=&quot;\nhttp://imgsparrow.co/image/gM&quot; rel=&quot;nofollow&quot; target=&quot;_NEW&quot;&gt;\nhttp://imgsparrow.co/image/gM&lt;/a&gt; &lt;a href=&quot;\nhttp://imgsparrow.co/image/gm&quot; rel=&quot;nofollow&quot; target=&quot;_NEW&quot;&gt;\nhttp://imgsparrow.co/image/gm&lt;/a&gt;\n &lt;a href=&quot;\nhttp://imgsparrow.co/image/N2&quot; rel=&quot;nofollow&quot; target=&quot;_NEW&quot;&gt;\nhttp://imgsparrow.co/image/N2&lt;/a&gt;","torrent":{"xt":"urn:btih:6dc412c03b72b45f9da4522e419f31d60b7bc7bb","amp;dn":"Chal+Guru+Ho+Ja+Shuru+%282015%29+Web+Rip+-+XviD+-+%5B1CD%5D+-+Eng+Subs+-","amp;tr":["udp%3A%2F%2Ftracker.openbittorrent.com%3A80","udp%3A%2F%2Fopen.demonii.com%3A1337","udp%3A%2F%2Ftracker.coppersurfer.tk%3A6969","udp%3A%2F%2Fexodus.desync.com%3A6969"],"infoHash":"6dc412c03b72b45f9da4522e419f31d60b7bc7bb","infoHashBuffer":{"type":"Buffer","data":[109,196,18,192,59,114,180,95,157,164,82,46,65,159,49,214,11,123,199,187]},"announce":[],"urlList":[]}}